<?xml version="1.0" standalone="no"?>
<!DOCTYPE svg PUBLIC "-//W3C//DTD SVG 20010904//EN"
 "http://www.w3.org/TR/2001/REC-SVG-20010904/DTD/svg10.dtd">
<svg version="1.0" xmlns="http://www.w3.org/2000/svg"
 width="375.000000pt" height="358.000000pt" viewBox="0 0 375.000000 358.000000"
 preserveAspectRatio="xMidYMid meet">

<g transform="translate(0.000000,358.000000) scale(0.100000,-0.100000)"
fill="#000000" stroke="none">
<path d="M0 3278 c0 -394 8 -548 28 -548 11 0 12 -3 3 -14 -13 -15 4 -26 40
-26 17 0 18 3 8 23 -6 12 -8 19 -4 15 4 -4 19 5 31 20 13 15 24 21 24 14 0
-10 5 -10 21 -2 33 18 59 43 59 57 0 7 9 13 20 13 22 0 27 16 8 23 -7 3 2 5
19 4 27 0 31 -3 22 -14 -10 -11 -8 -12 5 -7 10 4 15 13 12 20 -3 7 -1 16 5 19
5 4 7 10 4 15 -3 5 4 11 15 15 11 4 18 11 15 16 -4 5 2 6 12 2 16 -6 16 -5 4
10 -11 14 -11 17 0 17 11 0 11 2 -1 10 -8 5 -10 10 -5 10 6 0 21 -9 35 -20 20
-16 21 -19 5 -14 -11 4 -17 4 -13 -1 4 -4 0 -14 -10 -21 -9 -7 -14 -15 -11
-19 4 -3 14 1 23 10 9 9 20 14 25 11 5 -3 14 1 21 9 10 12 9 16 -4 21 -9 3
-16 13 -16 21 0 8 -5 11 -12 7 -7 -4 -8 -3 -4 5 6 9 11 9 22 0 11 -9 15 -6 20
20 4 17 13 36 22 43 9 7 13 8 9 2 -3 -6 5 -16 19 -23 14 -6 23 -7 19 -2 -3 6
3 14 12 20 11 6 13 11 5 11 -9 0 -11 7 -7 20 7 23 -10 28 -19 5 -4 -12 -10
-13 -25 -6 -14 8 -21 7 -24 -2 -4 -9 -6 -9 -6 1 -1 6 -6 12 -12 12 -5 0 -8 -4
-4 -9 3 -5 0 -13 -6 -17 -6 -3 -15 0 -20 7 -12 20 -11 31 3 23 6 -4 16 -1 22
7 12 15 49 22 40 8 -3 -5 4 -9 15 -9 11 0 23 4 26 10 9 14 33 -12 28 -30 -4
-13 -4 -13 5 0 8 10 7 19 -1 29 -9 11 -9 15 1 19 10 3 10 7 0 20 -11 14 -9 14
8 0 22 -19 39 -24 29 -9 -8 14 9 21 25 11 7 -4 19 -6 27 -3 11 4 11 8 1 21
-11 13 -10 14 9 4 17 -10 25 -9 37 4 17 16 22 29 8 20 -4 -2 -18 2 -32 10 -19
10 -21 13 -7 14 9 0 17 7 17 15 0 17 16 20 25 5 4 -6 11 -8 16 -5 5 4 9 1 9
-4 0 -15 -27 -14 -33 2 -4 9 -6 9 -6 -1 -2 -24 31 -26 50 -4 20 25 44 30 35 6
-3 -8 -2 -13 3 -10 10 7 7 77 -3 95 -5 7 -1 9 8 5 9 -3 16 -2 16 2 0 5 17 9
38 10 20 1 31 -1 25 -3 -17 -6 -17 -30 0 -36 9 -4 9 -6 0 -6 -7 -1 -13 -9 -12
-18 0 -11 3 -13 6 -5 2 6 9 10 14 6 5 -3 9 -1 9 4 0 5 15 16 33 23 42 17 56
36 50 71 -3 20 0 27 9 24 37 -12 72 -16 59 -7 -11 7 -9 10 8 16 13 4 27 1 37
-9 9 -9 21 -13 27 -9 6 4 2 9 -11 14 -31 12 -44 42 -28 64 12 17 13 17 19 -4
3 -11 1 -19 -4 -15 -5 3 -9 0 -9 -5 0 -6 2 -11 3 -11 9 0 67 32 67 36 0 3 -6
2 -12 -2 -10 -6 -10 -5 -1 8 7 8 10 17 7 21 -3 3 3 3 15 0 12 -3 21 -10 21
-15 0 -5 -4 -7 -8 -4 -4 2 -8 -4 -8 -15 0 -16 6 -12 32 17 21 22 37 33 45 28
8 -5 10 -3 4 7 -8 12 -6 12 8 0 15 -12 17 -11 17 3 0 9 -5 16 -11 16 -5 0 -7
6 -3 13 4 6 -2 4 -13 -5 -11 -10 -23 -18 -26 -18 -4 0 -7 8 -7 18 0 14 -2 15
-10 2 -8 -12 -10 -11 -10 7 0 16 4 21 15 17 8 -4 15 -13 15 -22 0 -13 4 -11
15 5 10 14 21 20 32 16 11 -4 14 -3 9 5 -4 6 -17 11 -29 11 -12 0 -289 3 -614
7 l-593 7 0 -305z m970 142 c0 -5 -2 -10 -4 -10 -3 0 -8 5 -11 10 -3 6 -1 10
4 10 6 0 11 -4 11 -10z m-66 -75 c-4 -8 -1 -15 6 -15 23 0 -1 -18 -30 -22 -21
-3 -29 -1 -26 7 2 7 -1 18 -7 24 -8 8 -7 11 5 11 9 0 20 -5 24 -11 5 -8 10 -6
16 5 11 20 19 21 12 1z m-254 -175 c0 -5 -2 -10 -4 -10 -3 0 -8 5 -11 10 -3 6
-1 10 4 10 6 0 11 -4 11 -10z m-160 -54 c0 -3 -4 -8 -10 -11 -5 -3 -10 -1 -10
4 0 6 5 11 10 11 6 0 10 -2 10 -4z m4 -78 c-3 -4 -9 -8 -15 -8 -5 0 -9 4 -9 8
0 5 7 9 15 9 8 0 12 -4 9 -9z m-74 -28 c0 -5 -2 -10 -4 -10 -3 0 -8 5 -11 10
-3 6 -1 10 4 10 6 0 11 -4 11 -10z m-253 -214 c-2 -6 -12 -12 -23 -13 -10 -2
-14 0 -7 3 7 3 9 12 6 20 -4 10 0 12 11 8 9 -4 15 -12 13 -18z"/>
<path d="M1278 3538 c9 -11 9 -18 2 -21 -6 -3 -5 -4 2 -3 18 4 16 28 -2 34
-13 4 -13 3 -2 -10z"/>
<path d="M1925 3429 c-22 -11 -48 -28 -58 -38 -23 -23 -60 -165 -52 -201 7
-33 -18 -100 -37 -100 -293 -5 -296 -5 -315 -22 -11 -10 -26 -18 -34 -18 -8 0
-32 -11 -54 -23 -50 -29 -189 -55 -207 -39 -8 6 -58 25 -113 42 -55 18 -127
45 -161 61 -56 26 -104 30 -104 9 0 -5 -6 -15 -13 -22 -45 -47 -67 -83 -67
-108 0 -56 56 -37 81 27 9 24 11 25 23 8 9 -12 26 -18 54 -18 24 0 43 -5 46
-13 7 -18 157 -114 178 -114 9 0 19 4 23 9 7 12 -24 43 -35 36 -5 -3 -17 1
-27 10 -10 8 -27 22 -38 30 -19 15 -19 15 7 9 37 -8 138 -61 164 -85 16 -15
29 -18 48 -13 22 5 32 0 59 -29 l32 -36 54 10 c29 6 57 7 61 2 17 -19 41 -254
34 -340 -6 -81 -10 -91 -40 -125 -38 -43 -64 -89 -64 -115 0 -10 -22 -49 -50
-87 -27 -37 -55 -85 -61 -105 -6 -20 -15 -101 -20 -180 -5 -90 -16 -168 -29
-211 -11 -37 -20 -78 -20 -92 0 -13 -6 -30 -13 -37 -9 -10 -9 -12 0 -7 14 7
77 -16 87 -33 9 -14 -45 -7 -112 16 -45 15 -65 30 -120 93 -37 41 -69 77 -73
80 -3 3 -19 25 -36 50 -80 115 -210 241 -304 294 -35 21 -44 33 -65 92 -13 38
-24 70 -24 72 0 8 46 -24 100 -69 33 -27 60 -45 60 -40 0 6 -9 15 -20 21 -10
6 -27 26 -36 46 -20 41 -86 94 -118 94 -83 -1 -328 -103 -458 -192 l-58 -39 0
-994 0 -995 986 0 986 0 -118 129 c-189 206 -217 240 -210 256 3 9 6 137 7
285 0 255 -1 272 -20 303 -11 17 -29 38 -41 45 -36 22 -102 26 -145 8 l-39
-17 -40 38 -41 38 38 -41 38 -40 -20 -45 c-17 -36 -21 -66 -21 -163 l0 -119
-22 28 c-12 16 -33 40 -46 54 -36 39 -53 79 -49 114 3 30 5 31 48 32 l44 0 3
62 3 62 -104 3 c-124 4 -137 2 -137 -20 0 -9 -20 13 -45 50 -25 37 -45 72 -45
77 0 6 -6 14 -12 18 -15 10 -49 56 -70 98 -9 17 -26 41 -37 54 -23 27 -27 51
-8 51 14 0 120 -35 191 -62 40 -16 50 -17 57 -6 6 8 9 9 9 1 0 -6 27 -20 59
-31 47 -16 59 -17 54 -6 -17 46 110 -51 130 -99 17 -40 47 -68 47 -43 0 12 7
15 28 11 25 -4 28 -2 29 23 0 15 3 37 7 50 6 18 4 22 -12 22 -12 0 -19 -6 -18
-16 2 -29 -19 -25 -37 6 -10 17 -15 30 -10 29 22 -4 31 3 26 21 -3 13 0 20 8
20 12 0 12 2 1 9 -11 7 -11 9 1 14 11 4 14 -1 12 -19 -1 -13 1 -24 4 -24 3 0
47 13 96 30 50 16 180 54 290 83 157 43 211 53 251 50 46 -4 53 -2 80 26 24
26 36 31 66 29 21 -2 38 -6 38 -10 0 -3 3 -14 7 -24 5 -14 3 -16 -11 -11 -21
8 -32 -15 -17 -40 7 -12 11 -13 11 -4 0 7 6 11 14 8 7 -3 23 1 33 8 19 13 20
12 15 -10 -2 -13 -7 -24 -11 -23 -25 3 -51 -4 -46 -12 9 -14 48 -13 63 2 16
16 15 73 -2 87 -7 6 -21 8 -30 5 -9 -4 -16 -3 -15 2 4 21 -2 44 -10 42 -14 -5
-101 93 -101 113 0 25 35 59 61 59 22 0 72 -34 63 -43 -3 -3 0 -14 8 -26 11
-18 10 -23 -9 -36 -21 -15 -22 -48 -2 -61 16 -10 118 27 176 65 130 84 181
194 118 256 -35 36 -77 32 -197 -18 -101 -43 -104 -43 -146 -29 -40 13 -44 12
-89 -12 -25 -15 -48 -25 -50 -23 -7 8 17 57 28 57 6 0 9 6 6 13 -3 9 3 13 17
13 20 -1 21 3 19 99 -3 123 -6 156 -16 173 -5 7 -5 21 -2 32 4 11 2 20 -4 20
-6 0 -11 10 -11 23 0 18 2 19 10 7 6 -9 10 -10 10 -3 0 7 -7 16 -15 21 -9 4
-17 22 -19 39 -3 17 -10 41 -16 53 -9 17 -9 24 0 30 14 9 -59 104 -101 129
-24 15 -27 20 -14 25 9 3 14 10 11 15 -4 5 4 22 17 38 46 55 61 101 30 89 -17
-7 -17 -6 0 11 17 17 20 17 86 -18 67 -34 69 -35 91 -17 23 19 40 16 40 -7 0
-24 88 -83 173 -116 115 -44 134 -55 141 -83 8 -33 75 -100 82 -81 3 7 0 23
-6 35 -15 29 -2 40 17 15 10 -14 13 -35 10 -67 -2 -26 -1 -45 4 -43 13 9 58
95 49 95 -5 0 -11 14 -15 30 -5 24 -23 41 -78 78 -40 25 -103 71 -142 100 -38
30 -95 67 -125 82 -58 30 -73 46 -166 180 -70 101 -127 160 -171 175 -57 20
-128 97 -73 80 16 -5 20 -2 20 15 0 12 4 19 8 16 4 -2 19 12 32 32 14 20 31
43 38 50 7 8 9 18 6 23 -3 6 2 13 12 15 11 3 30 27 43 54 l25 50 -23 24 c-13
14 -21 28 -18 33 9 14 -5 26 -56 51 -58 27 -99 27 -152 1z m95 -309 c-8 -5
-17 -7 -19 -4 -3 3 1 9 9 14 8 5 17 7 19 4 3 -3 -1 -9 -9 -14z m-95 -300 c-3
-11 -2 -20 4 -20 5 0 17 -3 26 -7 14 -5 16 -2 11 14 -6 17 -3 20 19 15 27 -5
35 -22 9 -22 -8 0 -21 -15 -29 -34 -8 -19 -20 -38 -26 -42 -9 -5 -7 -11 6 -21
29 -20 38 -16 32 17 -5 23 -2 32 12 40 18 9 18 7 9 -32 -5 -24 -10 -44 -12
-46 -2 -1 -22 0 -45 4 -43 7 -55 28 -22 39 18 5 38 52 27 62 -11 11 -38 -8
-32 -22 3 -8 1 -15 -5 -15 -7 0 -9 10 -5 26 6 22 4 25 -14 19 -15 -5 -20 -2
-20 13 0 25 8 32 37 32 20 0 23 -4 18 -20z m-41 -68 c5 -9 -22 -48 -29 -41 -2
3 -2 15 2 27 5 22 18 29 27 14z m-170 -681 c4 -5 42 -17 86 -27 92 -21 84 -8
145 -214 20 -69 42 -132 48 -140 6 -8 8 -12 4 -9 -9 7 -92 -14 -342 -90 -93
-28 -173 -51 -176 -51 -4 0 -4 12 0 28 4 15 9 115 10 222 2 107 5 198 8 203 8
14 23 -4 23 -29 0 -14 6 -27 13 -29 8 -4 11 -22 10 -53 l-3 -47 15 30 c8 17
14 37 15 46 0 9 12 32 28 52 15 20 40 54 56 77 29 39 49 49 60 31z m-264 -486
c10 -12 1 -65 -11 -65 -5 0 -8 51 -7 113 2 89 3 97 5 37 2 -41 8 -79 13 -85z
m756 -52 c-7 -7 -26 7 -26 19 0 6 6 6 15 -2 9 -7 13 -15 11 -17z m-1242 -158
c4 -11 -1 -14 -19 -13 -14 1 -25 8 -25 15 0 18 37 16 44 -2z m149 -48 c4 -15
1 -14 -16 5 -13 13 -29 32 -37 43 -12 15 -8 14 17 -5 17 -14 33 -33 36 -43z
m267 43 c6 -12 7 -20 1 -20 -5 0 -11 -10 -13 -22 -2 -17 -11 -24 -33 -26 l-30
-2 26 20 c18 14 25 27 24 45 -4 30 10 33 25 5z m107 -35 c-7 -7 -16 -11 -21
-8 -4 3 -2 9 5 14 12 7 12 12 1 31 l-13 23 20 -23 c16 -19 18 -26 8 -37z
m-107 -45 c0 -5 -5 -10 -11 -10 -5 0 -7 5 -4 10 3 6 8 10 11 10 2 0 4 -4 4
-10z m44 2 c-6 -4 -14 -14 -17 -22 -4 -10 -6 -8 -6 8 -1 15 5 22 17 22 10 0
13 -3 6 -8z m-28 -65 c19 -17 25 -29 21 -41 -7 -16 -9 -16 -32 6 -14 12 -30
31 -36 41 -15 26 14 22 47 -6z m123 -523 c1 -136 -1 -194 -9 -189 -7 4 -10 73
-10 201 1 107 5 192 10 189 4 -3 9 -93 9 -201z"/>
<path d="M1530 1820 c0 -5 5 -10 11 -10 5 0 7 5 4 10 -3 6 -8 10 -11 10 -2 0
-4 -4 -4 -10z"/>
<path d="M1511 1754 c0 -11 3 -14 6 -6 3 7 2 16 -1 19 -3 4 -6 -2 -5 -13z"/>
<path d="M1072 3414 c-14 -16 -5 -18 17 -5 7 5 9 11 5 14 -5 3 -15 -1 -22 -9z"/>
<path d="M946 3355 c-3 -9 0 -15 9 -15 9 0 12 6 9 15 -4 8 -7 15 -9 15 -2 0
-5 -7 -9 -15z"/>
<path d="M2145 3240 c-3 -5 -1 -10 4 -10 6 0 11 5 11 10 0 6 -2 10 -4 10 -3 0
-8 -4 -11 -10z"/>
<path d="M417 2885 c-17 -12 -16 -13 7 -11 25 1 34 10 18 20 -4 2 -15 -2 -25
-9z"/>
<path d="M2233 1643 c-7 -2 -13 -13 -13 -24 0 -23 32 -26 50 -4 20 25 -3 42
-37 28z"/>
<path d="M2270 1540 c0 -8 5 -22 10 -30 9 -13 10 -13 10 0 0 8 -5 22 -10 30
-9 13 -10 13 -10 0z"/>
<path d="M1764 1026 c-43 -19 -74 -66 -81 -126 -3 -27 -10 -50 -16 -50 -6 0
-5 -5 1 -13 7 -8 11 -83 12 -206 0 -106 4 -210 10 -231 32 -117 210 -135 266
-27 15 27 17 69 18 292 1 244 0 262 -20 299 -35 67 -117 94 -190 62z m76 -247
c0 -77 -4 -118 -10 -114 -6 4 -10 55 -10 121 0 69 4 114 10 114 6 0 10 -47 10
-121z m-1 -239 c0 -55 -4 -102 -9 -105 -5 -3 -9 43 -9 105 0 67 3 108 9 105 5
-3 9 -51 9 -105z"/>
<path d="M1992 968 l3 -63 35 -3 35 -3 -3 -242 c-2 -133 0 -265 3 -294 7 -58
15 -62 103 -54 l43 3 -3 294 -3 293 35 3 35 3 3 63 3 62 -146 0 -146 0 3 -62z"/>
<path d="M2296 988 c8 -80 44 -618 44 -648 l0 -30 84 0 83 0 7 37 c3 21 7 67
8 103 1 41 3 50 5 25 1 -22 6 -68 9 -102 l6 -63 84 0 c82 0 84 1 84 24 0 25
36 548 44 644 l5 52 -70 0 -69 0 -1 -92 c-1 -77 -3 -86 -10 -53 -4 22 -8 64
-8 93 l-1 52 -75 0 -75 0 0 -77 c0 -42 -3 -73 -7 -69 -10 9 -10 12 -12 86 l-1
60 -69 0 -69 0 4 -42z"/>
<path d="M2780 670 l0 -360 115 0 115 0 0 59 0 60 -47 3 -48 3 -3 92 -3 92 42
3 42 3 0 60 0 60 -42 3 -41 3 0 74 0 74 48 3 47 3 3 63 3 62 -116 0 -115 0 0
-360z"/>
<path d="M3062 693 c-18 -186 -33 -348 -32 -360 0 -21 4 -23 64 -23 73 0 76 4
76 98 0 39 4 52 15 52 12 0 15 -14 15 -62 0 -35 4 -69 9 -76 5 -9 28 -12 72
-10 l65 3 -35 358 -35 357 -91 0 -91 0 -32 -337z"/>
<path d="M3370 670 l0 -360 65 0 65 0 0 145 c0 90 4 145 10 145 6 0 10 -55 10
-145 l0 -145 65 0 65 0 0 164 c0 132 -3 166 -15 176 -13 11 -13 15 0 33 11 16
15 53 15 155 l0 134 -29 29 c-29 29 -31 29 -140 29 l-111 0 0 -360z m150 140
c0 -53 -4 -90 -10 -90 -6 0 -10 37 -10 90 0 53 4 90 10 90 6 0 10 -37 10 -90z"/>
<path d="M2015 430 c10 -11 20 -20 23 -20 3 0 -3 9 -13 20 -10 11 -20 20 -23
20 -3 0 3 -9 13 -20z"/>
</g>
</svg>
