<?xml version="1.0" standalone="no"?>
<!DOCTYPE svg PUBLIC "-//W3C//DTD SVG 20010904//EN"
 "http://www.w3.org/TR/2001/REC-SVG-20010904/DTD/svg10.dtd">
<svg version="1.0" xmlns="http://www.w3.org/2000/svg"
 width="500.000000pt" height="200.000000pt" viewBox="0 0 500.000000 200.000000"
 preserveAspectRatio="xMidYMid meet">

<g transform="translate(0.000000,200.000000) scale(0.100000,-0.100000)"
fill="#000000" stroke="none">
<path d="M300 1025 l0 -415 385 0 385 0 0 415 0 415 -385 0 -385 0 0 -415z
m700 273 c2 -224 -1 -602 -4 -607 -2 -3 -60 -6 -128 -6 l-123 0 -3 168 -2 167
50 0 50 0 0 -45 c0 -42 -2 -45 -27 -45 -44 0 -55 -13 -51 -56 l3 -39 83 -3 82
-3 0 141 0 140 -145 0 -145 0 -2 -212 -3 -213 -60 -3 c-33 -2 -93 -1 -132 3
l-73 7 0 339 0 339 315 0 315 0 0 -72z"/>
<path d="M442 1068 l3 -233 85 0 85 0 0 45 0 45 -43 3 -43 3 3 137 3 137 198
0 197 -1 0 48 0 48 -245 0 -245 0 2 -232z"/>
<path d="M1210 1240 c-1 -96 -19 -396 -26 -413 -5 -15 3 -17 75 -17 l81 0 0
58 c0 31 3 74 6 95 l7 37 88 0 89 0 0 50 0 49 -87 3 -88 3 -3 43 -3 42 115 0
116 0 0 53 0 52 -185 0 -185 0 0 -55z"/>
<path d="M2688 1248 c-46 -10 -48 -12 -48 -43 0 -31 -3 -34 -32 -37 -32 -3
-33 -5 -36 -50 -3 -44 -2 -47 25 -50 l28 -3 -4 -105 c-3 -91 0 -108 15 -128
22 -27 75 -37 138 -28 39 6 47 11 52 34 3 15 8 35 10 44 4 13 -3 17 -33 20
l-38 3 -3 83 -3 82 41 0 40 0 0 51 c0 27 -4 48 -9 45 -5 -3 -23 -3 -41 1 -32
6 -32 7 -26 49 6 50 7 49 -76 32z"/>
<path d="M1746 1166 c-43 -16 -91 -58 -112 -98 -18 -35 -18 -131 1 -167 59
-115 260 -138 356 -42 85 84 75 224 -21 287 -50 33 -161 43 -224 20z m134
-106 c77 -77 -18 -212 -97 -138 -38 36 -26 129 19 148 36 14 56 12 78 -10z"/>
<path d="M2226 1165 c-157 -56 -178 -266 -35 -341 70 -36 199 -27 261 17 61
44 89 169 53 238 -44 86 -171 125 -279 86z m117 -94 c14 -6 29 -23 36 -41 30
-88 -53 -165 -120 -111 -20 16 -24 28 -23 67 1 38 6 52 28 71 30 25 43 28 79
14z"/>
<path d="M3677 1166 c-21 -8 -48 -22 -59 -33 -58 -51 -77 -182 -36 -254 33
-58 74 -74 195 -74 56 0 105 3 108 7 4 3 9 24 12 46 l5 41 -76 -6 c-53 -4 -84
-2 -100 7 -27 14 -51 59 -39 71 5 5 62 10 128 11 l120 3 3 45 c3 55 -23 102
-70 126 -44 23 -143 28 -191 10z m127 -88 c29 -41 21 -48 -49 -48 -72 0 -83
12 -45 50 27 27 75 26 94 -2z"/>
<path d="M4097 1171 c-46 -10 -53 -16 -61 -60 -6 -32 -5 -33 22 -27 15 4 57 9
95 13 l67 6 0 -26 c0 -21 -6 -28 -27 -33 -16 -3 -58 -15 -95 -25 -106 -31
-144 -96 -101 -170 19 -32 63 -49 126 -49 31 0 39 4 47 26 14 37 13 39 -22 49
-45 14 -44 45 2 67 73 35 75 33 72 -54 l-3 -78 65 0 c46 0 66 4 66 13 1 6 5
70 9 142 9 139 4 172 -32 195 -25 16 -171 23 -230 11z"/>
<path d="M4617 1160 c-30 -24 -37 -25 -37 -5 0 12 -14 15 -65 15 l-65 0 0
-119 c0 -65 -3 -146 -6 -180 l-7 -61 72 0 71 0 0 85 c0 108 16 149 63 164 18
6 41 9 50 5 15 -5 17 2 17 55 l0 61 -34 0 c-18 0 -45 -9 -59 -20z"/>
<path d="M2881 1158 c0 -7 26 -87 57 -178 l57 -165 61 -3 62 -3 33 97 c19 54
39 99 45 101 6 2 20 -38 34 -97 l22 -101 65 3 66 3 72 170 c40 94 69 174 65
178 -4 5 -31 7 -60 5 l-54 -3 -31 -99 c-17 -55 -36 -101 -42 -103 -10 -4 -35
74 -48 149 -9 51 -24 60 -90 56 l-57 -3 -20 -65 c-27 -92 -50 -150 -57 -150
-4 0 -18 44 -30 98 -13 53 -28 103 -33 110 -6 7 -33 12 -64 12 -37 0 -54 -4
-53 -12z"/>
</g>
</svg>
