<?xml version="1.0" standalone="no"?>
<!DOCTYPE svg PUBLIC "-//W3C//DTD SVG 20010904//EN"
 "http://www.w3.org/TR/2001/REC-SVG-20010904/DTD/svg10.dtd">
<svg version="1.0" xmlns="http://www.w3.org/2000/svg"
 width="118.000000pt" height="126.000000pt" viewBox="0 0 118.000000 126.000000"
 preserveAspectRatio="xMidYMid meet">

<g transform="translate(0.000000,126.000000) scale(0.100000,-0.100000)"
fill="#000000" stroke="none">
<path d="M110 1252 c-30 -1 -65 -4 -78 -7 l-22 -5 0 -615 0 -615 580 0 580 0
0 620 0 620 -502 2 c-277 2 -528 2 -558 0z m960 -622 l0 -510 -200 0 -200 0 0
250 0 250 75 0 75 0 0 -70 0 -70 -60 0 -60 0 0 -70 0 -70 135 0 135 0 0 210 0
210 -225 0 c-173 0 -225 -3 -226 -12 -1 -7 -1 -151 1 -321 l2 -307 -201 0
-201 0 0 510 0 510 475 0 475 0 0 -510z"/>
<path d="M220 690 l0 -350 135 0 135 0 0 70 0 70 -60 0 -60 0 0 210 0 211 253
-4 c138 -2 273 -2 300 1 l47 4 0 69 0 69 -375 0 -375 0 0 -350z"/>
</g>
</svg>
